<svg width="22" height="16" fill="none" xmlns="http://www.w3.org/2000/svg"><path d="m0 3.048 7.412 4.778c-.064.045-.111.082-.161.114L.17 12.325A1.342 1.342 0 0 1 0 12.4V3.048ZM11.019.309h9.522c.67 0 1.178.34 1.377.91.053.15.048.251-.119.358-2.981 1.915-5.96 3.835-8.935 5.761-.569.37-1.139.73-1.703 1.103-.111.074-.188.075-.301 0C7.306 6.14 3.748 3.845.187 1.55.07 1.477.046 1.41.079 1.282.154 1.021.306.791.516.62c.21-.172.468-.278.74-.305.101-.009.202-.008.302-.008l9.46.002ZM11.003 15.14H1.477c-.67 0-1.18-.342-1.375-.912-.048-.144-.048-.24.113-.34a2076.6 2076.6 0 0 0 8.299-5.141c.128-.08.215-.076.338.006.539.358 1.093.697 1.628 1.06.358.244.688.25 1.048.007.549-.37 1.112-.72 1.665-1.084a.224.224 0 0 1 .284-.004c2.782 1.729 5.566 3.454 8.352 5.176.124.077.137.149.102.271a1.334 1.334 0 0 1-.444.656c-.212.17-.472.274-.745.297-.1.008-.2.007-.3.007h-9.44ZM22 12.42l-7.404-4.585L22 3.055v9.366Z" fill="#fff"/></svg>