<svg width="17" height="19" fill="none" xmlns="http://www.w3.org/2000/svg"><g clip-path="url(#a)" fill="#fff"><path d="M16.582 19c.335-.152.425-.414.418-.766-.067-3.41-2.713-6.44-6.13-6.99a9.428 9.428 0 0 0-1.294-.107 39.993 39.993 0 0 0-2.302 0c-2.911.106-5.042 1.463-6.437 3.95-.549.98-.788 2.049-.835 3.164-.015.347.091.6.417.748L16.582 19ZM8.503 10.02a5.162 5.162 0 0 0 2.833-.847 5.03 5.03 0 0 0 1.876-2.25 4.928 4.928 0 0 0 .287-2.897A4.984 4.984 0 0 0 12.1 1.462 5.127 5.127 0 0 0 9.487.095a5.182 5.182 0 0 0-2.946.29 5.08 5.08 0 0 0-2.285 1.85 4.948 4.948 0 0 0-.854 2.787 4.976 4.976 0 0 0 1.502 3.532 5.154 5.154 0 0 0 3.6 1.465Z"/></g><defs><clipPath id="a"><path fill="#fff" transform="matrix(-1 0 0 1 17 0)" d="M0 0h17v19H0z"/></clipPath></defs></svg>