<svg width="15" height="21" fill="none" xmlns="http://www.w3.org/2000/svg"><g clip-path="url(#a)"><path d="M13.515 21H1.485c-.18-.058-.37-.093-.535-.18-.653-.344-.95-.92-.95-1.678V8.521c0-.517.121-.646.607-.646h1.062V6.23c-.003-1.675.515-3.147 1.636-4.34C4.836.26 6.695-.324 8.823.173c2.577.6 4.463 3.035 4.5 5.834.006.547.003 1.094.005 1.64v.23h1.16c.345 0 .509.167.51.523v10.806c0 .596-.211 1.107-.686 1.442-.233.165-.53.237-.797.352ZM10.825 7.87c0-.633.008-1.247 0-1.86A3.318 3.318 0 0 0 10.14 4c-.843-1.102-1.945-1.572-3.268-1.3-1.336.274-2.207 1.144-2.58 2.522-.232.855-.095 1.74-.113 2.61 0 .01.016.02.028.036h6.618Zm-3.342 9.634c.248 0 .495.003.742 0 .39-.005.556-.212.512-.612-.082-.746-.16-1.493-.235-2.24a.269.269 0 0 1 .069-.187c.444-.418.635-.927.575-1.555-.092-.994-1.104-1.743-2.026-1.483-.663.187-1.094.631-1.242 1.33-.14.664.052 1.239.54 1.7a.28.28 0 0 1 .077.205c-.073.754-.155 1.507-.236 2.26-.039.366.129.573.483.582.246.005.494 0 .741 0Z" fill="#D32E2E"/></g><defs><clipPath id="a"><path fill="#fff" d="M0 0h15v21H0z"/></clipPath></defs></svg>