<svg width="20" height="20" fill="none" xmlns="http://www.w3.org/2000/svg"><path d="M15.09 20c-.488-.105-.983-.186-1.465-.32-.989-.276-1.91-.72-2.798-1.23-2.516-1.452-4.667-3.34-6.575-5.514-1.238-1.41-2.32-2.93-3.154-4.615C.585 7.283.18 6.21.041 5.051c-.086-.725-.063-1.447.293-2.111.114-.212.257-.407.424-.58C1.34 1.763 1.942 1.185 2.525.59c.81-.827 2.066-.742 2.83 0 .911.886 1.808 1.787 2.7 2.691.786.798.792 1.992.011 2.719a1.91 1.91 0 0 1-.593.363c-.546.214-.977.54-1.213 1.09a1.666 1.666 0 0 0-.077 1.123c.291 1.086.909 1.98 1.651 2.797.773.85 1.648 1.575 2.687 2.081.459.223.93.421 1.46.352.717-.094 1.263-.44 1.548-1.122.175-.423.382-.81.786-1.062.755-.472 1.687-.386 2.354.262a150.05 150.05 0 0 1 2.781 2.776c.748.77.72 2-.038 2.767-.6.608-1.209 1.206-1.812 1.81-.423.432-.95.647-1.54.725-.05.01-.099.022-.147.037L15.09 20Z" fill="#000"/></svg>
