<svg width="21" height="17" fill="none" xmlns="http://www.w3.org/2000/svg"><path d="M0 7.74c.178-.352.5-.538.855-.672 1.406-.53 2.814-1.056 4.222-1.577l14.48-5.38c.114-.046.233-.078.354-.098.647-.089 1.107.286 1.088.952-.012.433-.11.867-.205 1.293-.992 4.534-1.988 9.067-2.99 13.598-.05.234-.132.46-.243.672-.215.405-.585.557-1.033.426a2.15 2.15 0 0 1-.623-.287c-1.507-1.06-3.004-2.13-4.505-3.195l-.195-.135c-.06.053-.116.096-.169.145-.767.71-1.534 1.42-2.299 2.133a1.126 1.126 0 0 1-.837.33c.02-.288.039-.57.06-.852.09-1.245.18-2.49.28-3.734a.437.437 0 0 1 .136-.266c2.909-2.54 5.82-5.077 8.733-7.612.02-.018.048-.031.06-.053.055-.098.105-.199.158-.299-.125-.023-.257-.082-.373-.062-.142.024-.28.106-.406.18L5.682 9.841a.417.417 0 0 1-.294.05C3.847 9.432 2.309 8.965.77 8.5c-.312-.094-.595-.23-.767-.518L0 7.74Z" fill="#fff"/></svg>