<svg width="17" height="19" fill="none" xmlns="http://www.w3.org/2000/svg"><path d="M8.888 18.385c-4.062-.042-7.102-2.999-7.767-7.175C.364 6.455 3.237 1.803 7.366 1.104c.233-.04.467-.063.706-.09.187-.024 1.05-.04 1.444.116 0 0-.78.3-1.198.666-1.002.868-1.62 2.031-1.888 3.447-.595 3.16 1.312 6.394 4.072 6.866 1.938.33 3.554-.396 4.765-2.177.347-.51.616-1.591.616-1.591.156.71.115 1.645.104 1.85-.078 1.544-.468 2.978-1.216 4.258-1.5 2.571-3.614 3.843-5.883 3.936ZM7.01 2.053C4.6 2.535 1.682 5.408 1.75 9.83c.068 4.441 3.218 7.87 7.08 7.702 3.623-.16 5.904-3.515 6.25-6.113-2.447 2.448-5.834 1.936-7.773-.258-1.877-2.119-2.51-6.17-.297-9.11Z" fill="#fff" stroke="#fff" stroke-width=".5" stroke-miterlimit="10"/></svg>