<svg width="17" height="17" fill="none" xmlns="http://www.w3.org/2000/svg"><path d="M8.888 16c-4.062-.036-7.102-2.587-7.767-6.19-.757-4.103 2.116-8.116 6.245-8.72.233-.034.467-.054.706-.077.187-.02 1.05-.034 1.444.1 0 0-.78.259-1.198.575-1.002.749-1.62 1.752-1.888 2.974-.595 2.726 1.312 5.517 4.072 5.923 1.938.286 3.554-.34 4.765-1.878.347-.44.616-1.373.616-1.373.156.614.115 1.42.104 1.597-.078 1.332-.468 2.569-1.216 3.674-1.5 2.217-3.614 3.315-5.883 3.395ZM7.01 1.91C4.6 2.324 1.682 4.803 1.75 8.62c.068 3.832 3.218 6.79 7.08 6.645 3.623-.138 5.904-3.033 6.25-5.274-2.447 2.112-5.834 1.67-7.773-.223-1.877-1.827-2.51-5.323-.297-7.859Z" fill="#000" stroke="#000" stroke-width=".5" stroke-miterlimit="10"/></svg>